<?xml version="1.0" encoding="utf-8"?>
<!-- Generator: Adobe Illustrator 22.1.0, SVG Export Plug-In . SVG Version: 6.00 Build 0)  -->
<svg version="1.1" id="Layer_1" xmlns="http://www.w3.org/2000/svg" xmlns:xlink="http://www.w3.org/1999/xlink" x="0px" y="0px"
	 viewBox="0 0 750 1334" style="enable-background:new 0 0 750 1334;" xml:space="preserve">
<style type="text/css">
	.st0{fill:none;stroke:#09A379;stroke-miterlimit:10;}
	.st1{fill:#160F16;stroke:#09A379;stroke-miterlimit:10;}
	.st2{fill:#F38060;}
	.st3{fill:#72C6AB;}
	.st4{font-family:'Calibri';}
	.st5{font-size:4.4953px;}
	.st6{fill:none;stroke:#72C6AB;stroke-miterlimit:10;}
	.st7{fill:#72C6AB;stroke:#72C6AB;stroke-width:0.75;stroke-miterlimit:10;}
</style>
<line class="st0" x1="375.3" y1="607.7" x2="375.3" y2="761.6"/>
<circle class="st1" cx="375.3" cy="636.3" r="1.6"/>
<circle class="st2" cx="375.3" cy="652.3" r="1.6"/>
<circle class="st1" cx="375.3" cy="668.3" r="1.6"/>
<circle class="st1" cx="375.3" cy="684.3" r="1.6"/>
<circle class="st1" cx="375.3" cy="700.3" r="1.6"/>
<circle class="st1" cx="375.3" cy="716.3" r="1.6"/>
<circle class="st1" cx="375.3" cy="732.3" r="1.6"/>
<g>
	<text transform="matrix(0.9569 0 0 1 366.6206 766.4194)" class="st3 st4 st5">934.234.223</text>
	<path class="st6" d="M387.4,769H363c-1.1,0-2-0.9-2-2v-3.4c0-1.1,0.9-2,2-2h24.4c1.1,0,2,0.9,2,2v3.4
		C389.4,768.1,388.5,769,387.4,769z"/>
</g>
<circle class="st0" cx="375.3" cy="598.5" r="9.3"/>
<line class="st7" x1="365.7" y1="761.6" x2="365.8" y2="769"/>
<text transform="matrix(0.9569 0 0 1 362.54 766.4194)" class="st2 st4 st5">$</text>
</svg>
